<svg width="305" height="124" viewBox="0 0 305 124" fill="none" xmlns="http://www.w3.org/2000/svg">
<path d="M125.148 77.865C121.656 90.7604 113.99 102.215 103.286 110.53C92.5821 118.845 79.4119 123.576 65.7296 124.021C52.0474 124.466 38.5823 120.602 27.3328 113.002C16.0832 105.403 7.64858 94.4716 3.28073 81.8321C-1.08712 69.1925 -1.15546 55.5178 3.08586 42.8373C7.32718 30.1569 15.6521 19.1465 26.8252 11.4402C37.9983 3.73395 51.4241 -0.257585 65.1101 0.0579999C78.7962 0.373584 92.0131 4.97947 102.799 13.1921L85.2154 39.5165C80.3776 35.1629 74.2718 32.3799 67.7409 31.5518C61.2101 30.7237 54.5764 31.8913 48.7559 34.8934C42.9354 37.8955 38.2152 42.584 35.2471 48.3115C32.2789 54.0389 31.2093 60.5229 32.1859 66.868C33.1625 73.213 36.1371 79.1062 40.699 83.7338C45.2609 88.3614 51.185 91.495 57.6534 92.702C64.1217 93.9091 70.8152 93.1299 76.8096 90.4722C82.8039 87.8145 87.8034 83.4094 91.1177 77.865H59.6232L80.1277 47.1532L125.425 47.288C127.96 57.3424 127.864 67.8557 125.148 77.865ZM136.63 123.94H168.186V47.4228L136.799 47.318L136.63 123.94ZM152.431 0C148.601 0 144.856 1.10655 141.672 3.17971C138.487 5.25288 136.004 8.19954 134.538 11.6471C133.073 15.0946 132.689 18.8882 133.436 22.5481C134.184 26.208 136.028 29.5698 138.737 32.2085C141.445 34.8471 144.896 36.644 148.653 37.372C152.41 38.1 156.304 37.7264 159.843 36.2984C163.382 34.8704 166.406 32.4521 168.534 29.3494C170.662 26.2467 171.798 22.5989 171.798 18.8673C171.798 13.8634 169.758 9.0644 166.126 5.5261C162.494 1.9878 157.568 0 152.431 0V0ZM302.895 77.865C305.606 67.8651 305.701 57.3629 303.171 47.318L257.874 47.1832L237.37 77.865H268.864C265.55 83.4142 260.549 87.8239 254.551 90.485C248.554 93.1461 241.856 93.9273 235.383 92.7207C228.911 91.5141 222.982 88.3793 218.417 83.7492C213.852 79.1191 210.875 73.2222 209.898 66.873C208.92 60.5239 209.991 54.0358 212.962 48.3049C215.932 42.574 220.656 37.8831 226.481 34.8802C232.306 31.8773 238.944 30.7105 245.479 31.541C252.014 32.3715 258.123 35.1583 262.962 39.5165L280.546 13.1622C269.765 4.95736 256.557 0.356425 242.881 0.0418892C229.204 -0.272647 215.788 3.71597 204.622 11.4161C193.456 19.1162 185.136 30.1175 180.894 42.7882C176.653 55.4589 176.718 69.1239 181.078 81.7561C185.438 94.3883 193.862 105.315 205.1 112.915C216.338 120.515 229.791 124.383 243.464 123.946C257.137 123.51 270.301 118.791 281.004 110.49C291.707 102.189 299.378 90.7484 302.879 77.865H302.895Z" fill="#1E1D62"/>
</svg>
